<?xml version="1.0" encoding="utf-8"?>
<!-- Generator: Adobe Illustrator 19.0.0, SVG Export Plug-In . SVG Version: 6.00 Build 0)  -->
<svg version="1.1" id="Calque_1" xmlns="http://www.w3.org/2000/svg" xmlns:xlink="http://www.w3.org/1999/xlink" x="0px" y="0px"
	 viewBox="-247 372.6 100 77" style="enable-background:new -247 372.6 100 77;" xml:space="preserve">
<style type="text/css">
	.st0{fill:#FFFFFF;}
</style>
<path class="st0" d="M-197,404.6c-7.2,0-13,5.8-13,13s5.8,13,13,13s13-5.8,13-13S-189.8,404.6-197,404.6z"/>
<path class="st0" d="M-160,385.6h-15c0-7.2-5.8-13-13-13h-18c-7.2,0-13,5.8-13,13h-15c-7.2,0-13,5.8-13,13v38c0,7.2,5.8,13,13,13h74
	c7.2,0,13-5.8,13-13v-38C-147,391.5-152.8,385.6-160,385.6z M-197,440.6c-12.7,0-23-10.3-23-23c0-12.7,10.3-23,23-23s23,10.3,23,23
	C-174,430.3-184.3,440.6-197,440.6z"/>
</svg>
